<?xml version="1.0" encoding="utf-8"?>
<!-- Generator: Adobe Illustrator 27.7.0, SVG Export Plug-In . SVG Version: 6.00 Build 0)  -->
<svg version="1.1" id="Calque_1" xmlns="http://www.w3.org/2000/svg" xmlns:xlink="http://www.w3.org/1999/xlink" x="0px" y="0px"
	 viewBox="0 0 46.46 46.46" style="enable-background:new 0 0 46.46 46.46;" xml:space="preserve">
<style type="text/css">
	.st0{fill:#010202;stroke:#141614;stroke-width:0.4321;stroke-miterlimit:10;}
	.st1{fill:#FFFFFF;}
</style>
<g>
	<path id="XMLID_699_" class="st0" d="M23.23,46.46L23.23,46.46C10.4,46.46,0,36.06,0,23.23l0,0C0,10.4,10.4,0,23.23,0l0,0
		c12.83,0,23.23,10.4,23.23,23.23l0,0C46.46,36.06,36.06,46.46,23.23,46.46z"/>
	<path id="XMLID_659_" class="st1" d="M20.09,35.68h5.01V23.13h3.5l0.37-4.2h-3.87c0,0,0-1.57,0-2.39c0-0.99,0.2-1.38,1.16-1.38
		c0.77,0,2.71,0,2.71,0v-4.36c0,0-2.86,0-3.47,0c-3.73,0-5.41,1.64-5.41,4.79c0,2.74,0,3.35,0,3.35h-2.61v4.26h2.61V35.68z"/>
</g>
</svg>
