<?xml version="1.0" encoding="utf-8"?>
<!-- Generator: Adobe Illustrator 27.7.0, SVG Export Plug-In . SVG Version: 6.00 Build 0)  -->
<svg version="1.1" id="Calque_1" xmlns="http://www.w3.org/2000/svg" xmlns:xlink="http://www.w3.org/1999/xlink" x="0px" y="0px"
	 viewBox="0 0 46.46 46.46" style="enable-background:new 0 0 46.46 46.46;" xml:space="preserve">
<style type="text/css">
	.st0{fill:#141614;}
	.st1{fill:#FFFFFF;}
</style>
<g>
	<g>
		<path id="XMLID_682_" class="st0" d="M23.23,46.46L23.23,46.46C10.4,46.46,0,36.06,0,23.23l0,0C0,10.4,10.4,0,23.23,0l0,0
			c12.83,0,23.23,10.4,23.23,23.23l0,0C46.46,36.06,36.06,46.46,23.23,46.46z"/>
	</g>
	<g id="XMLID_665_">
		<g id="XMLID_667_">
			<rect id="XMLID_669_" x="13.32" y="18.63" class="st1" width="4.26" height="13.77"/>
			<path id="XMLID_668_" class="st1" d="M15.43,16.82c1.39,0,2.52-1.14,2.52-2.54s-1.13-2.54-2.52-2.54c-1.39,0-2.52,1.14-2.52,2.54
				S14.04,16.82,15.43,16.82z"/>
		</g>
		<path id="XMLID_666_" class="st1" d="M24.39,25.17c0-1.94,0.89-3.09,2.6-3.09c1.57,0,2.32,1.11,2.32,3.09c0,1.98,0,7.23,0,7.23
			h4.24c0,0,0-5.03,0-8.72c0-3.69-2.09-5.47-5.01-5.47c-2.92,0-4.15,2.28-4.15,2.28v-1.86h-4.09V32.4h4.09
			C24.39,32.4,24.39,27.29,24.39,25.17z"/>
	</g>
</g>
</svg>
