<?xml version="1.0" encoding="utf-8"?>
<!-- Generator: Adobe Illustrator 27.7.0, SVG Export Plug-In . SVG Version: 6.00 Build 0)  -->
<svg version="1.1" id="Calque_1" xmlns="http://www.w3.org/2000/svg" xmlns:xlink="http://www.w3.org/1999/xlink" x="0px" y="0px"
	 viewBox="0 0 46.46 46.46" style="enable-background:new 0 0 46.46 46.46;" xml:space="preserve">
<style type="text/css">
	.st0{fill:none;stroke:#141614;stroke-width:0.4321;stroke-miterlimit:10;}
	.st1{fill:#141614;}
</style>
<g>
	<g>
		<path id="XMLID_696_" class="st0" d="M23.23,46.46L23.23,46.46C10.4,46.46,0,36.06,0,23.23l0,0C0,10.4,10.4,0,23.23,0l0,0
			c12.83,0,23.23,10.4,23.23,23.23l0,0C46.46,36.06,36.06,46.46,23.23,46.46z"/>
	</g>
	<g id="XMLID_649_">
		<path id="XMLID_656_" class="st1" d="M23.23,13.97c3.02,0,3.37,0.01,4.56,0.07c1.1,0.05,1.7,0.23,2.1,0.39
			c0.53,0.2,0.9,0.45,1.3,0.84c0.4,0.4,0.64,0.77,0.84,1.3c0.15,0.4,0.34,1,0.39,2.1c0.05,1.19,0.07,1.55,0.07,4.56
			c0,3.02-0.01,3.37-0.07,4.56c-0.05,1.1-0.23,1.7-0.39,2.1c-0.2,0.53-0.45,0.9-0.84,1.3c-0.4,0.4-0.77,0.64-1.3,0.84
			c-0.4,0.15-1,0.34-2.1,0.39c-1.19,0.05-1.55,0.07-4.56,0.07c-3.02,0-3.37-0.01-4.56-0.07c-1.1-0.05-1.7-0.23-2.1-0.39
			c-0.53-0.2-0.9-0.45-1.3-0.84c-0.4-0.4-0.64-0.77-0.84-1.3c-0.15-0.4-0.34-1-0.39-2.1c-0.05-1.19-0.07-1.55-0.07-4.56
			c0-3.02,0.01-3.37,0.07-4.56c0.05-1.1,0.23-1.7,0.39-2.1c0.2-0.53,0.45-0.9,0.84-1.3c0.4-0.4,0.77-0.64,1.3-0.84
			c0.4-0.15,1-0.34,2.1-0.39C19.86,13.98,20.22,13.97,23.23,13.97 M23.23,11.94c-3.07,0-3.45,0.01-4.66,0.07
			c-1.2,0.05-2.02,0.25-2.74,0.52c-0.74,0.29-1.37,0.67-2,1.3c-0.63,0.63-1.01,1.26-1.3,2c-0.28,0.72-0.47,1.54-0.53,2.74
			c-0.06,1.2-0.07,1.59-0.07,4.66s0.01,3.45,0.07,4.66c0.05,1.2,0.25,2.02,0.53,2.74c0.29,0.74,0.67,1.37,1.3,2
			c0.63,0.63,1.26,1.01,2,1.3c0.72,0.28,1.54,0.47,2.74,0.52c1.2,0.05,1.59,0.07,4.66,0.07c3.07,0,3.45-0.01,4.66-0.07
			c1.2-0.05,2.02-0.25,2.74-0.52c0.74-0.29,1.37-0.67,2-1.3c0.63-0.63,1.01-1.26,1.3-2c0.28-0.72,0.47-1.54,0.53-2.74
			c0.05-1.2,0.07-1.59,0.07-4.66s-0.01-3.45-0.07-4.66c-0.05-1.2-0.25-2.02-0.53-2.74c-0.29-0.74-0.67-1.37-1.3-2
			c-0.63-0.63-1.26-1.01-2-1.3c-0.72-0.28-1.54-0.47-2.74-0.52C26.68,11.95,26.3,11.94,23.23,11.94"/>
		<path id="XMLID_653_" class="st1" d="M23.23,17.43c-3.2,0-5.8,2.6-5.8,5.8s2.6,5.8,5.8,5.8c3.2,0,5.8-2.6,5.8-5.8
			S26.43,17.43,23.23,17.43 M23.23,27c-2.08,0-3.76-1.69-3.76-3.76c0-2.08,1.69-3.76,3.76-3.76c2.08,0,3.76,1.69,3.76,3.76
			C27,25.31,25.31,27,23.23,27"/>
		<path id="XMLID_652_" class="st1" d="M30.62,17.2c0,0.75-0.61,1.36-1.36,1.36c-0.75,0-1.36-0.61-1.36-1.36s0.61-1.36,1.36-1.36
			C30.01,15.85,30.62,16.45,30.62,17.2"/>
	</g>
</g>
</svg>
