<?xml version="1.0" encoding="utf-8"?>
<!-- Generator: Adobe Illustrator 27.7.0, SVG Export Plug-In . SVG Version: 6.00 Build 0)  -->
<svg version="1.1" id="Calque_1" xmlns="http://www.w3.org/2000/svg" xmlns:xlink="http://www.w3.org/1999/xlink" x="0px" y="0px"
	 viewBox="0 0 46.46 46.46" style="enable-background:new 0 0 46.46 46.46;" xml:space="preserve">
<style type="text/css">
	.st0{fill:none;stroke:#141614;stroke-width:0.4321;stroke-miterlimit:10;}
	.st1{fill:#141614;}
</style>
<g>
	<g>
		<path id="XMLID_693_" class="st0" d="M23.23,46.46L23.23,46.46C10.4,46.46,0,36.06,0,23.23l0,0C0,10.4,10.4,0,23.23,0l0,0
			c12.83,0,23.23,10.4,23.23,23.23l0,0C46.46,36.06,36.06,46.46,23.23,46.46z"/>
	</g>
	<path id="XMLID_670_" class="st1" d="M12.26,31.07c1.99,1.28,4.36,2.02,6.9,2.02c8.36,0,13.08-7.06,12.8-13.4
		c0.88-0.63,1.64-1.43,2.25-2.33c-0.81,0.36-1.68,0.6-2.59,0.71c0.93-0.56,1.64-1.44,1.98-2.49c-0.87,0.52-1.83,0.89-2.86,1.09
		c-0.82-0.88-1.99-1.42-3.29-1.42c-2.91,0-5.04,2.71-4.39,5.53c-3.74-0.19-7.06-1.98-9.28-4.71c-1.18,2.02-0.61,4.67,1.39,6.01
		c-0.74-0.02-1.43-0.23-2.04-0.56c-0.05,2.09,1.45,4.04,3.61,4.47c-0.63,0.17-1.33,0.21-2.03,0.08c0.57,1.79,2.24,3.09,4.21,3.13
		C17.03,30.69,14.65,31.35,12.26,31.07z"/>
</g>
</svg>
